<?xml version="1.0" encoding="UTF-8" standalone="no"?>
<!-- Created with Inkscape (http://www.inkscape.org/) -->

<svg
   width="77.088997mm"
   height="16.51mm"
   viewBox="0 0 77.088997 16.51"
   version="1.1"
   id="svg5"
   xml:space="preserve"
   sodipodi:docname="horizontal_two_color.svg"
   inkscape:version="1.3 (0e150ed6c4, 2023-07-21)"
   xmlns:inkscape="http://www.inkscape.org/namespaces/inkscape"
   xmlns:sodipodi="http://sodipodi.sourceforge.net/DTD/sodipodi-0.dtd"
   xmlns="http://www.w3.org/2000/svg"
   xmlns:svg="http://www.w3.org/2000/svg"><sodipodi:namedview
     id="namedview1"
     pagecolor="#ffffff"
     bordercolor="#000000"
     borderopacity="0.25"
     inkscape:showpageshadow="2"
     inkscape:pageopacity="0.0"
     inkscape:pagecheckerboard="true"
     inkscape:deskcolor="#d1d1d1"
     inkscape:document-units="mm"
     inkscape:zoom="6.0234763"
     inkscape:cx="145.51398"
     inkscape:cy="31.211213"
     inkscape:window-width="1920"
     inkscape:window-height="1009"
     inkscape:window-x="1912"
     inkscape:window-y="-8"
     inkscape:window-maximized="1"
     inkscape:current-layer="svg5" /><defs
     id="defs2" /><g
     id="g119"
     transform="matrix(0.26458333,0,0,0.26458334,77.088997,8.2973334)"><path
       style="fill:#ffffff;fill-opacity:1;fill-rule:nonzero;stroke:none"
       d="m -101.76,-2.72 c 3.679998,-1.6 4.959997,-5.6 4.959997,-9.76 0,-6.560001 -4.799997,-11.36 -12.319997,-11.36 h -14.56 v 0.799999 c 2.56,0.960001 2.88,3.520001 2.88,7.680001 v 28.64 h 7.52 V 0.16 h 1.12 c 2.4,0 4.96,0.32 8,5.44 l 4.960003,7.68 h 8.159996 L -96,4.96 c 0,0 -0.160004,-0.16 -1.279999,-2.08 -0.800003,-1.44 -2.080002,-3.84 -4.480001,-5.6 z m -2.72,-9.44 c 0,5.6 -2.56,7.04 -6.24,7.04 h -2.56 V -18.4 h 2.56 c 3.68,0 6.24,2.4 6.24,6.24 z"
       id="path4451" /><path
       style="fill:#ffffff;fill-opacity:1;fill-rule:nonzero;stroke:none"
       d="m -82.239998,-12.32 h -9.279999 v 0.8 c 2.079995,0.48 2.559998,2.72 2.559998,5.6 v 19.2 h 6.720001 z"
       id="path4449" /><path
       style="fill:#ffffff;fill-opacity:1;fill-rule:nonzero;stroke:none"
       d="m -82.080002,-19.68 c 0,-2.24 -1.599998,-3.84 -3.839996,-3.84 -1.919998,0 -3.68,1.6 -3.68,3.84 0,2.08 1.760002,3.68 3.68,3.68 2.239998,0 3.839996,-1.6 3.839996,-3.68 z"
       id="path4447" /><path
       style="fill:#ffffff;fill-opacity:1;fill-rule:nonzero;stroke:none"
       d="m -59.84,13.28 h 6.880001 c -0.32,-1.28 -0.639999,-3.36 -0.639999,-5.76 v -31.36 h -9.280003 v 0.799999 c 2.080002,0.480002 2.560001,2.880001 2.560001,5.6 V -11.2 c -1.279998,-1.28 -3.2,-1.92 -5.279998,-1.92 h -0.160004 v 0 c -3.360001,0 -6.559998,1.28 -8.959999,3.68 -2.559998,2.56 -4.159996,5.92 -4.159996,9.92 0,4.48 1.439995,8.16 4,10.56 1.919998,1.92 4.639999,2.88 7.68,2.88 h 0.479996 c 2.080002,-0.16 4.800003,-0.8 6.720001,-3.04 z m -0.48,-7.52 c -0.959999,1.76 -2.880001,3.04 -5.120002,3.04 h -0.159996 v 0 h -0.160004 c -1.439995,0 -2.720001,-0.64 -3.68,-1.6 C -70.879997,5.76 -71.68,3.36 -71.68,0.64 c 0,-5.12 2.879997,-8.16 6.720001,-8.16 2.239998,0 3.68,0.8 4.639999,1.92 z"
       id="path4445" /><path
       style="fill:#ffffff;fill-opacity:1;fill-rule:nonzero;stroke:none"
       d="m -25.120001,20 v -0.48 c 0,-4.16 -3.199999,-7.04 -8.479997,-7.68 -0.800004,-0.16 -3.520001,-0.48 -5.280003,-0.64 -1.759998,-0.32 -2.559998,-0.96 -2.559998,-1.92 0,-1.28 1.279999,-1.6 4,-1.92 6.079998,-0.48 9.599999,-4 9.599999,-8.96 v 0 -0.32 c 0,-1.6 -0.799999,-3.68 -2.24,-4.8 0.639999,0.16 1.6,0.16 2.4,0.16 h 2.399999 v -5.76 h -13.120001 c -6.559997,0 -11.199996,4.16 -11.199996,10.08 0,3.52 1.919998,6.72 5.119998,8.16 -1.920002,0.32 -3.52,1.92 -3.52,3.84 0,1.44 1.119999,3.04 3.200001,3.2 C -49.599998,14.08 -52,17.280001 -52,20.639999 c 0,5.280001 5.279999,8.640002 13.279999,8.640002 7.840002,0 13.6,-3.680001 13.6,-9.280001 z m -18.24,-22.24 c 0,-3.04 1.920002,-5.12 4.64,-5.12 2.720001,0 4.639999,2.08 4.639999,5.12 0,3.04 -1.919998,5.12 -4.639999,5.12 -2.719998,0 -4.64,-2.08 -4.64,-5.12 z M -31.68,20.32 c 0,2.559999 -2.880001,3.84 -7.040001,3.84 -4,0 -6.879997,-1.280001 -6.879997,-3.84 0,-2.4 2.879997,-3.680001 6.879997,-3.680001 4.16,0 7.040001,1.280001 7.040001,3.680001 z"
       id="path4443" /><path
       style="fill:#ffffff;fill-opacity:1;fill-rule:nonzero;stroke:none"
       d="m 0,0 c 0,-4.16 -1.12,-7.68 -3.36,-9.92 -2.08,-2.08 -4.8,-3.2 -8.32,-3.2 -7.360001,0 -12.64,5.92 -12.64,13.6 0,7.84 5.119999,13.44 13.44,13.44 3.68,0 7.2,-0.96 10.08,-2.88 l -1.12,-4.8 c -2.4,1.76 -4.96,2.4 -7.52,2.4 -0.48,0 -0.96,0 -1.44,0 -3.52,-0.32 -6.079999,-2.72 -6.400001,-6.72 L 0,1.92 C 0,1.28 0,0.64 0,0 Z M -6.56,-2.72 H -17.120001 C -16.639999,-6.24 -14.4,-8 -11.68,-8 c 3.52,0 4.96,2.4 5.12,5.28 z"
       id="path121" /></g><g
     id="g123"
     transform="matrix(0.26458333,0,0,0.26458334,1.3546655,13.419664)"
     inkscape:label="g123"><path
       d="m 0,0 c -0.96,0.32 -1.76,1.12 -2.24,1.92 -0.48,0.96 -0.8,1.92 -0.8,3.04 0,0.96 0.16,1.92 0.8,2.72 0.48,0.96 1.12,1.6 2.08,2.08 0.96,0.48 1.92,0.64 3.04,0.64 0.8,0 1.6,0 2.08,-0.16 C 5.6,10.08 6.24,9.76 7.04,9.44 V 7.36 C 6.08,7.84 5.44,8.16 4.96,8.32 4.32,8.48 3.84,8.64 3.2,8.64 2.4,8.64 1.76,8.48 1.12,8.16 0.48,7.84 0,7.36 -0.32,6.72 -0.64,6.24 -0.96,5.6 -0.96,4.8 -0.96,4.16 -0.64,3.52 -0.32,2.88 0,2.24 0.48,1.76 1.12,1.44 1.76,1.12 2.4,0.96 3.2,0.96 c 0.64,0 1.28,0.16 1.76,0.32 0.64,0.16 1.28,0.48 1.92,0.8 V 0.16 C 6.24,-0.16 5.6,-0.48 4.96,-0.64 4.32,-0.64 3.68,-0.8 3.04,-0.8 1.92,-0.8 0.96,-0.48 0,0 Z m 14.4,0 c -0.96,0.48 -1.6,1.12 -2.24,1.92 -0.48,0.96 -0.64,1.92 -0.64,2.88 0,1.12 0.16,2.08 0.64,2.88 0.64,0.8 1.28,1.6 2.24,2.08 0.96,0.48 1.92,0.64 3.040001,0.64 1.119998,0 2.239999,-0.16 3.199998,-0.64 C 21.440001,9.28 22.24,8.48 22.719999,7.68 23.200001,6.72 23.52,5.92 23.52,4.8 23.52,3.84 23.200001,2.88 22.719999,1.92 22.24,1.12 21.440001,0.32 20.48,-0.16 19.68,-0.48 18.559999,-0.8 17.440001,-0.8 16.32,-0.8 15.2,-0.48 14.4,0 Z M 14.08,2.88 C 14.4,2.24 14.88,1.76 15.52,1.44 16,1.12 16.799999,0.96 17.440001,0.96 18.24,0.96 18.879999,1.12 19.52,1.44 c 0.48,0.32 0.96,0.8 1.279999,1.44 0.320002,0.64 0.480002,1.28 0.480002,1.92 0,1.12 -0.320002,2.08 -0.960001,2.72 -0.8,0.8 -1.760001,1.12 -2.879999,1.12 C 16.799999,8.64 16.16,8.48 15.52,8.16 14.88,7.84 14.4,7.36 14.08,6.72 13.76,6.24 13.6,5.6 13.6,4.8 c 0,-0.64 0.16,-1.28 0.48,-1.92 z m 14.4,-3.52 v 10.88 h 2.239999 v -7.68 0 l 3.199999,3.84 h 0.320004 l 3.039997,-3.84 h 0.16 v 7.68 H 39.52 V -0.64 H 37.599998 L 34.080002,3.68 30.4,-0.64 Z m 16.479999,0 v 10.88 h 2.080002 V 2.56 h 0.16 l 3.040001,3.84 h 0.319999 l 3.199997,-3.84 v 0 7.68 H 56 V -0.64 h -1.919998 l -3.68,4.32 -3.520001,-4.32 z m 16.32,0 v 6.56 c 0,0.96 0.16,1.76 0.639999,2.4 0.320004,0.64 0.960003,1.28 1.760002,1.6 0.64,0.32 1.599999,0.48 2.559998,0.48 1.599998,0 2.880005,-0.32 3.68,-1.12 0.959999,-0.8 1.440003,-1.92 1.440003,-3.36 V -0.64 H 69.120003 V 5.6 c 0,0.64 0,1.28 -0.32,1.76 C 68.639999,7.68 68.32,8 67.839996,8.32 c -0.479995,0.16 -0.959999,0.32 -1.599998,0.32 -0.64,0 -1.119995,-0.16 -1.599999,-0.48 C 64.32,8 64,7.68 63.68,7.2 63.52,6.88 63.360001,6.4 63.360001,5.76 v -6.4 z m 15.36,0 v 10.88 h 2.080002 V 2.56 l 6.559998,7.68 h 1.760002 V -0.64 h -2.080002 v 7.68 l -6.400001,-7.68 z m 16,10.88 h 2.080002 V -0.64 h -2.080002 z m 6.720002,-10.88 v 1.6 H 103.36 v 9.28 h 2.08 V 0.96 h 3.84 v -1.6 z m 13.439999,0 4.16,5.44 v 5.44 h 2.08 V 4.8 l 4.16,-5.44 h -2.56 l -2.72,3.68 -2.56,-3.68 z"
       style="fill:#00a7cf;fill-opacity:1;fill-rule:nonzero;stroke:none"
       id="path125" /></g><g
     id="g127"
     transform="matrix(0.26458333,0,0,0.26458334,39.623997,13.377334)"><path
       d="m 0,0 c -0.96,0.48 -1.76,1.12 -2.24,2.08 -0.48,0.8 -0.8,1.92 -0.8,2.88 0,1.12 0.16,2.08 0.8,2.88 0.48,0.96 1.12,1.6 2.08,2.08 0.96,0.32 1.92,0.64 3.04,0.64 0.8,0 1.6,-0.16 2.08,-0.32 C 5.6,10.08 6.24,9.92 7.04,9.6 V 7.52 C 6.24,8 5.44,8.32 4.96,8.48 4.32,8.64 3.84,8.8 3.2,8.8 2.4,8.8 1.76,8.64 1.12,8.32 0.48,8 0,7.52 -0.32,6.88 -0.64,6.4 -0.8,5.6 -0.8,4.96 -0.8,4.16 -0.64,3.52 -0.32,3.04 0,2.4 0.48,1.92 1.12,1.6 1.76,1.28 2.4,1.12 3.2,1.12 3.84,1.12 4.48,1.28 4.96,1.44 5.6,1.6 6.24,1.92 6.88,2.24 V 0.32 C 6.24,-0.16 5.6,-0.32 4.96,-0.48 4.32,-0.64 3.68,-0.64 3.04,-0.64 1.92,-0.64 0.96,-0.48 0,0 Z M 14.4,0 C 13.44,0.48 12.8,1.28 12.16,2.08 11.68,3.04 11.52,4 11.52,4.96 c 0,0.96 0.16,1.92 0.64,2.88 0.64,0.8 1.28,1.44 2.24,1.92 0.96,0.48 1.92,0.8 3.040001,0.8 1.119998,0 2.239999,-0.32 3.199998,-0.8 C 21.440001,9.28 22.24,8.64 22.719999,7.84 23.200001,6.88 23.52,5.92 23.52,4.96 23.52,3.84 23.200001,2.88 22.719999,2.08 22.24,1.12 21.440001,0.48 20.48,0 19.68,-0.48 18.559999,-0.64 17.440001,-0.64 16.32,-0.64 15.2,-0.48 14.4,0 Z M 14.08,3.04 C 14.4,2.4 14.88,1.92 15.52,1.6 16,1.28 16.799999,1.12 17.440001,1.12 18.24,1.12 18.879999,1.28 19.52,1.6 c 0.48,0.32 0.96,0.8 1.279999,1.44 0.320002,0.48 0.480002,1.12 0.480002,1.92 0,1.12 -0.320002,2.08 -0.960001,2.72 C 19.52,8.32 18.559999,8.8 17.440001,8.8 16.799999,8.8 16.16,8.64 15.52,8.32 14.88,8 14.4,7.52 14.08,6.88 13.76,6.4 13.6,5.6 13.6,4.96 c 0,-0.8 0.16,-1.44 0.48,-1.92 z m 14.4,-3.52 V 10.4 H 36 V 8.8 h -5.280001 v -9.28 z m 12,0 V 10.4 h 7.36 V 8.8 h -5.279999 v -9.28 z m 11.2,0 V 10.4 h 7.200001 V 8.8 H 53.759998 V 5.6 h 4.800003 V 4 H 53.759998 V 1.12 h 4.960003 v -1.6 z M 66.400002,0 c -0.96,0.48 -1.599999,1.28 -2.080002,2.08 -0.64,0.8 -0.8,1.76 -0.8,2.88 0,1.12 0.16,2.08 0.8,2.88 0.480003,0.8 1.120002,1.6 2.080002,1.92 0.959999,0.48 2.080001,0.8 3.199996,0.8 0.800004,0 1.599999,-0.16 2.400002,-0.32 0.639999,-0.16 1.279999,-0.48 1.919998,-0.96 V 4.8 h -4 V 6.56 H 71.68 v 1.76 c -0.319999,0.16 -0.639999,0.32 -0.959999,0.32 -0.319999,0 -0.639999,0.16 -0.959999,0.16 -1.279999,0 -2.240005,-0.48 -3.040001,-1.12 -0.639999,-0.64 -1.120003,-1.6 -1.120003,-2.72 0,-0.64 0.160004,-1.28 0.480004,-1.92 0.479996,-0.64 0.959999,-1.12 1.439995,-1.44 0.640007,-0.32 1.440002,-0.48 2.240005,-0.48 1.279999,0 2.559998,0.32 3.839996,1.12 V 0.16 c -1.279998,-0.48 -2.559997,-0.8 -4,-0.8 -1.119995,0 -2.239997,0.16 -3.199996,0.64 z M 79.199997,-0.48 V 10.4 h 7.200005 V 8.8 H 81.279999 V 5.6 h 4.800003 V 4 H 81.279999 V 1.12 h 4.959999 v -1.6 z"
       style="fill:#00a7cf;fill-opacity:1;fill-rule:nonzero;stroke:none"
       id="path129" /></g><g
     id="g131"
     transform="matrix(0.26458333,0,0,0.26458334,6.6886668,10.329334)"><path
       d="m 0,0 h -14.88 v -31.52 h -10.400001 v 0.800001 C -22.719999,-29.76 -22.4,-27.200001 -22.4,-23.040001 V 5.76 H 0 Z M 24.959999,0.8 C 24.32,1.28 23.68,1.44 23.040001,1.44 c -0.160002,0 -0.320002,0 -0.480002,0 C 22.24,1.28 21.92,0.96 21.92,0.16 v -12 c 0,-2.72 -0.960001,-4.799999 -2.4,-6.4 -1.6,-1.6 -4.32,-2.399999 -7.2,-2.399999 -3.36,0 -7.36,1.279998 -9.28,3.359998 V -11.36 c 2.56,-2.88 5.76,-3.84 8.32,-3.84 2.4,0 3.68,1.44 3.68,4 v 0.8 c -1.6,0.32 -3.68,0.64 -5.28,1.12 -4.96,1.44 -8.32,4.16 -8.32,8.64 0,4.48 3.84,6.88 8,6.88 2.08,0 4.8,-0.96 6.4,-2.72 0.48,1.44 1.76,2.72 4,2.72 h 0.32 v 0 h 0.16 c 1.76,0 3.2,-0.64 4.639999,-1.28 z M 15.04,-0.32 c -0.8,1.12 -2.08,1.76 -3.36,1.76 h -0.16 v 0 C 9.44,1.44 8,0.16 8,-1.44 V -1.6 c 0,-2.56 2.4,-4.16 7.04,-4.8 z M 50.560001,5.76 C 50.080002,4.32 49.919998,2.24 49.919998,-0.16 V -20 H 43.040001 V -2.4 C 42.080002,-0.64 40.16,0.96 37.919998,0.96 c -3.039997,0 -4.16,-1.92 -4.16,-5.12 V -20 H 24.32 v 0.799999 C 26.4,-18.719999 27.040001,-16.48 27.040001,-13.6 v 8.96 c 0,6.88 2.559999,10.88 8.639999,10.88 3.040001,0 5.919998,-1.28 7.84,-3.68 l 0.16,3.2 z M 73.440002,-19.040001 C 72.32,-20 70.720001,-20.639999 68.639999,-20.639999 h -0.479995 c -2.560006,0 -5.120003,1.76 -6.560006,4.799999 l -0.159999,-4.32 h -8.64 v 0.799999 C 54.880001,-18.719999 55.360001,-16.48 55.360001,-13.6 V 5.76 h 6.880001 V -7.36 c 0,-4.16 1.439998,-6.72 4.799999,-7.2 0.32,0 0.639999,-0.16 1.120003,-0.16 1.439994,0 2.879997,0.64 3.679992,1.12 z m 24,11.360001 c 0,-4.16 -1.279998,-7.68 -3.520004,-9.92 -2.080002,-2.08 -4.639999,-3.199999 -8.32,-3.199999 -7.199996,0 -12.639999,5.919999 -12.639999,13.599999 0,7.84 5.279999,13.44 13.599999,13.44 3.68,0 7.04,-0.96 9.920005,-2.88 l -1.120002,-4.8 c -2.400002,1.76 -4.800003,2.4 -7.520005,2.4 -0.319999,0 -0.799995,0 -1.279998,0 C 82.879997,0.64 80.32,-1.76 80,-5.76 h 17.279999 c 0,-0.64 0.160003,-1.28 0.160003,-1.92 z M 80.32,-10.4 c 0.480003,-3.52 2.720001,-5.28 5.279998,-5.28 3.680001,0 4.96,2.4 5.120003,5.28 z m 27.36,-21.12 h -9.279998 v 0.800001 C 100.48,-30.24 100.96,-27.84 100.96,-25.120001 V 5.76 h 6.72 z"
       style="fill:#ffffff;fill-opacity:1;fill-rule:nonzero;stroke:none"
       id="path133" /></g><g
     id="g135"
     transform="matrix(0.26458333,0,0,0.26458334,37.168657,12.615334)"><path
       d="m 0,0 c -0.64,-0.32 -0.96,-0.16 -1.92,-0.8 -1.6,-1.28 -1.92,-4.16 -1.92,-6.08 0,-1.44 0.8,-2.88 0.32,-4 -0.16,-0.48 0,-0.48 0.32,-0.48 0.8,-0.16 2.08,1.44 2.72,1.92 1.92,1.76 4.48,4.32 3.04,7.68 0,0 0,0 0.16,0 1.76,-1.76 4.16,-3.52 5.76,-6.4 0,0 0.32,-0.48 0.48,-0.8 0,-0.16 0,-0.16 0,-0.16 -0.8,0 -1.12,0.48 -2.24,0.16 C 4.8,-9.28 2.88,-11.2 2.4,-13.28 1.76,-14.4 1.6,-16.639999 0.64,-17.440001 0.48,-17.76 0.64,-17.92 0.8,-18.08 c 0.64,-0.16 3.04,1.280001 3.68,1.440001 C 7.04,-16 10.4,-14.88 10.4,-11.68 c 0.16,0 0.16,0 0.16,0 0.96,-2.08 2.56,-4.64 2.4,-7.360001 -1.12,0 -1.76,-0.32 -2.56,-0.479999 -1.76,-0.48 -3.04,-0.64 -4.32,-1.439999 -2.24,-1.280001 -3.84,-6.240002 -3.84,-9.92 1.12,0.16 2.24,0.959999 3.2,1.439998 C 9.44,-28 12.8,-27.84 13.44,-22.4 13.76,-24 13.12,-27.200001 12.8,-28 12.16,-30.08 12,-31.84 11.2,-33.439999 10.4,-34.880001 8.96,-35.200001 8,-36.48 c -1.12,-1.439998 -0.96,-4.479999 -1.12,-7.2 0,-0.959999 -0.64,-3.040001 -0.16,-3.84 0.16,-0.16 0.16,-0.16 0.32,-0.16 0.96,0.16 1.28,0.959999 1.92,1.439998 1.76,1.440003 3.84,3.040001 4.64,5.440003 0.48,1.439998 0.16,3.68 -0.16,4.799999 -0.16,0.639999 -0.8,1.279999 -0.48,2.240002 0.32,1.119999 1.28,3.679998 1.44,5.119999 0.48,-0.32 0,-2.08 0,-3.200001 0.16,-1.439999 0.48,-1.919998 0.96,-2.880001 0.48,-1.119999 1.279999,-2.559998 2.4,-3.199997 0.64,-0.320004 1.440001,-0.320004 1.92,-0.800003 0.8,-0.48 0.959999,-0.16 0.959999,0 C 21.120001,-34.080002 19.52,-30.879999 17.440001,-27.84 16.799999,-26.719999 15.84,-25.6 15.36,-24.48 c -0.32,0.96 -0.16,0.96 -0.32,2.72 -0.16,2.08 -0.32,3.52 -1.12,5.92 0,0.16 0,0.16 0,0.32 1.44,-1.119999 1.92,-3.520001 2.879999,-5.119999 1.440001,-1.92 5.440001,-5.120001 8,-5.280001 0.640002,1.280001 0.16,3.040001 -0.16,4.16 -1.279998,4.479999 -2.08,5.92 -5.92,7.36 -2.08,0.64 -3.999999,0.48 -5.279999,1.44 -0.64,0.64 -1.12,1.44 -1.44,2.4 0,0 -0.16,0.16 -0.16,0.16 -0.16,0.48 -0.48,0.8 -0.8,1.28 -0.16,0.32 -0.32,0.64 -0.48,0.96 -0.96,1.28 -1.6,2.56 -2.72,3.52 -0.16,0.32 -0.32,0.32 -0.32,0.48 1.76,-0.64 3.36,-2.88 4.96,-3.84 2.24,-1.44 7.04,-1.92 9.76,-1.92 0,1.44 -1.280001,3.04 -2.08,4 -2.56,2.88 -5.12,4.48 -8.8,4.64 -1.6,0.16 -3.84,-0.96 -5.44,-0.48 -1.44,0.32 -2.72,1.44 -4.16,2.72 -1.12,1.28 -3.36,3.52 -4,7.36 -0.48,4.16 0.16,5.76 -0.8,6.4 -0.48,-0.16 -1.92,-1.6 -1.92,-4 0.32,-3.52 3.2,-9.12 4.64,-10.4 z"
       style="fill:#75bd43;fill-opacity:1;fill-rule:nonzero;stroke:none"
       id="path137" /></g></svg>
