<?xml version="1.0" encoding="UTF-8" standalone="no"?>
<!-- Created with Inkscape (http://www.inkscape.org/) -->

<svg
   width="26.881666mm"
   height="26.924002mm"
   viewBox="0 0 26.881666 26.924002"
   version="1.1"
   id="svg5973"
   xmlns:inkscape="http://www.inkscape.org/namespaces/inkscape"
   xmlns:sodipodi="http://sodipodi.sourceforge.net/DTD/sodipodi-0.dtd"
   xmlns="http://www.w3.org/2000/svg"
   xmlns:svg="http://www.w3.org/2000/svg">
  <sodipodi:namedview
     id="namedview5975"
     pagecolor="#ffffff"
     bordercolor="#000000"
     borderopacity="0.25"
     inkscape:showpageshadow="2"
     inkscape:pageopacity="0.0"
     inkscape:pagecheckerboard="0"
     inkscape:deskcolor="#d1d1d1"
     inkscape:document-units="mm"
     showgrid="false" />
  <defs
     id="defs5970" />
  <g
     inkscape:label="Layer 1"
     inkscape:groupmode="layer"
     id="layer1"
     transform="translate(130.53761,-14.570257)">
    <g
       id="g5841"
       transform="matrix(0.26458333,0,0,0.26458334,-103.65594,28.032258)">
      <path
         d="M 0,0 C 0,28 -22.719999,50.880001 -50.720001,50.880001 -78.879997,50.880001 -101.6,28 -101.6,0 c 0,-28 22.720003,-50.880001 50.879999,-50.880001 C -22.719999,-50.880001 0,-28 0,0 Z"
         style="fill:#00416b;fill-opacity:1;fill-rule:nonzero;stroke:none"
         id="path5843" />
    </g>
    <g
       id="g5845"
       transform="matrix(0.26458333,0,0,0.26458334,-120.20828,34.001258)">
      <path
         d="m 0,0 c -0.96,-0.48 -1.28,-0.32 -2.72,-1.28 -2.4,-1.92 -2.72,-5.92 -2.72,-8.8 0,-2.08 0.96,-4.16 0.32,-5.76 -0.16,-0.64 0.16,-0.64 0.64,-0.799999 1.12,0 3.04,2.239999 3.84,2.879999 2.88,2.56 6.4,6.24 4.32,11.04 0.16,0 0.16,0 0.16,0 2.88,-2.4 6.24,-5.12 8.48,-9.12 0,0 0.48,-0.8 0.64,-1.28 0,-0.16 0,-0.16 0,-0.16 -0.96,0 -1.6,0.64 -3.2,0.32 C 6.88,-13.6 4.32,-16.32 3.52,-19.360001 2.72,-20.959999 2.56,-24 1.12,-25.440001 0.8,-25.76 0.96,-26.08 1.28,-26.08 c 0.96,-0.32 4.32,1.6 5.28,1.92 3.68,0.959999 8.48,2.4 8.64,7.200001 0.16,0 0.16,0 0.16,0 C 16.799999,-20 18.879999,-23.68 18.879999,-27.68 17.280001,-27.52 16.32,-28 15.2,-28.32 c -2.56,-0.639999 -4.32,-0.960001 -6.4,-2.08 -3.2,-1.76 -5.44,-8.960001 -5.6,-14.239999 1.76,0 3.36,1.279998 4.8,1.919998 C 13.76,-40.639999 18.559999,-40.32 19.52,-32.48 20,-34.880001 19.040001,-39.52 18.559999,-40.639999 17.76,-43.52 17.6,-46.080002 16.32,-48.48 c -1.12,-2.080001 -3.36,-2.560001 -4.64,-4.319999 -1.6,-2.240002 -1.44,-6.560002 -1.6,-10.400002 -0.16,-1.439998 -0.96,-4.479999 -0.32,-5.600002 0.16,-0.32 0.32,-0.32 0.48,-0.32 1.44,0.32 1.76,1.440003 2.72,2.240006 2.56,1.919998 5.599999,4.159996 6.72,7.679996 0.64,2.080002 0.16,5.440003 -0.319999,7.040001 -0.16,0.799999 -0.960001,1.919998 -0.640002,3.200001 0.640002,1.759998 1.92,5.279999 2.08,7.52 0.640002,-0.640003 0,-3.2 0,-4.640003 0.320002,-2.079998 0.800001,-2.879997 1.440001,-4.32 0.639999,-1.439998 1.92,-3.519996 3.52,-4.479999 0.799999,-0.48 2.08,-0.639999 2.879999,-1.279999 0.960001,-0.639999 1.120001,-0.16 1.280001,0 0.799999,6.720001 -1.76,11.520001 -4.639999,15.84 -0.960001,1.599999 -2.400002,3.200001 -3.040001,4.8 -0.48,1.279998 -0.16,1.279998 -0.48,4 -0.16,2.880001 -0.479999,5.12 -1.44,8.319999 -0.16,0.480002 -0.16,0.480002 -0.16,0.640002 C 22.24,-24.16 22.879999,-27.68 24.48,-29.92 c 1.92,-2.879999 7.84,-7.519999 11.52,-7.679998 0.799999,1.759998 0.16,4.319999 -0.48,6.079998 -1.600002,6.399999 -2.720001,8.640001 -8.479999,10.560001 C 24,-20 21.440001,-20.16 19.68,-18.719999 c -1.120001,0.799999 -1.76,2.08 -2.239999,3.359999 -0.16,0.16 -0.16,0.16 -0.16,0.16 -0.320002,0.8 -0.640002,1.28 -1.120001,1.92 -0.32,0.32 -0.64,0.8 -0.96,1.28 -1.12,2.08 -2.08,3.68 -3.84,5.28 -0.16,0.32 -0.32,0.32 -0.48,0.48 2.72,-0.8 4.96,-4 7.36,-5.44 3.200001,-2.08 10.08,-2.88 14.08,-2.88 0,2.24 -1.92,4.48 -3.199999,5.92 -3.68,4 -7.200001,6.4 -12.640001,6.72 -2.4,0.16 -5.6,-1.44 -7.84,-0.8 -2.08,0.64 -4,2.08 -5.92,4.16 -1.76,1.6 -5.12,4.96 -5.76,10.4 -0.8,6.24 0.16,8.48 -1.28,9.440001 C -4.96,20.959999 -7.04,18.879999 -7.04,15.52 -6.56,10.24 -2.56,2.24 -0.48,0.32 Z"
         style="fill:#76bc21;fill-opacity:1;fill-rule:nonzero;stroke:none"
         id="path5847" />
    </g>
  </g>
</svg>
