<?xml version="1.0" encoding="UTF-8" standalone="no"?>
<!-- Created with Inkscape (http://www.inkscape.org/) -->

<svg
   width="48.141804mm"
   height="29.464001mm"
   viewBox="0 0 48.141804 29.464001"
   version="1.1"
   id="svg5"
   xml:space="preserve"
   sodipodi:docname="stacked_two_color.svg"
   inkscape:version="1.3 (0e150ed6c4, 2023-07-21)"
   xmlns:inkscape="http://www.inkscape.org/namespaces/inkscape"
   xmlns:sodipodi="http://sodipodi.sourceforge.net/DTD/sodipodi-0.dtd"
   xmlns="http://www.w3.org/2000/svg"
   xmlns:svg="http://www.w3.org/2000/svg"><sodipodi:namedview
     id="namedview7"
     pagecolor="#030303"
     bordercolor="#000000"
     borderopacity="0.25"
     inkscape:showpageshadow="2"
     inkscape:pageopacity="0.0"
     inkscape:pagecheckerboard="true"
     inkscape:deskcolor="#d1d1d1"
     inkscape:document-units="mm"
     showgrid="false"
     inkscape:zoom="2.4586622"
     inkscape:cx="90.903095"
     inkscape:cy="55.314635"
     inkscape:window-width="1920"
     inkscape:window-height="1009"
     inkscape:window-x="1912"
     inkscape:window-y="-8"
     inkscape:window-maximized="1"
     inkscape:current-layer="svg5" /><defs
     id="defs2" /><g
     id="g87"
     transform="matrix(0.26458333,0,0,0.26458334,-129.95453,-70.484999)"><path
       d="M 666.23999,304.32001 H 673.12 v -37.92002 h -9.44001 v 0.80002 c 2.08002,0.63999 2.56,3.03998 2.56,5.91999 z m -3.67999,-11.68 c 0,-0.64001 0.15997,-1.28002 0.15997,-1.92001 0,-4.32001 -1.27997,-7.84 -3.51996,-10.07999 -2.08001,-2.24002 -4.79999,-3.20001 -8.48004,-3.20001 -7.35999,0 -12.95996,5.91999 -12.95996,13.76001 0,8 5.44,13.75998 13.76001,13.75998 3.83996,0 7.35998,-1.11999 10.23999,-3.03998 l -1.12,-4.96002 c -2.40002,1.76001 -4.96002,2.56 -7.67999,2.56 -0.48004,0 -0.96002,0 -1.44,-0.16 -3.52002,-0.31998 -6.23999,-2.71998 -6.56,-6.71998 z M 655.84003,288 h -10.56 c 0.47998,-3.67999 2.71997,-5.44 5.43994,-5.44 3.68005,0 4.96002,2.56 5.12006,5.44 z m -19.20002,-3.20001 1.76001,-5.59998 c -1.11999,-0.96002 -2.88,-1.6 -4.96002,-1.6 h -0.47998 c -2.72003,0 -5.28003,1.6 -6.56,4.79998 l -0.16003,-4.32 h -8.95996 V 278.88 c 2.07995,0.47999 2.71997,2.88001 2.71997,5.76001 v 19.68 h 6.88 v -13.28 c 0,-4.32001 1.44001,-6.88001 4.96003,-7.36002 0.31994,0 0.63995,0 1.11999,0 1.44,0 2.88001,0.48001 3.67999,1.12 z M 608,304.32001 h 7.03998 c -0.47998,-1.44001 -0.63996,-3.68 -0.63996,-6.08002 v -20.16 h -6.88 V 296 c -1.12,1.92001 -3.04004,3.51999 -5.28003,3.51999 -3.03998,0 -4.32001,-2.07999 -4.32001,-5.12 v -16.32 h -9.44 V 278.88 c 2.08002,0.47999 2.56,2.88001 2.56,5.91999 v 8.96002 c 0,7.03998 2.72003,11.19998 8.96002,11.19998 3.03998,0 5.91998,-1.44 7.84003,-3.83999 z m -18.88,-4.96002 c -0.79999,0.32 -1.44001,0.64001 -2.08002,0.64001 -0.15998,0 -0.32001,0 -0.47998,-0.16 -0.32001,0 -0.64002,-0.32001 -0.64002,-1.12 v -12.32001 c 0,-2.72 -0.95996,-4.79998 -2.56,-6.39999 -1.59997,-1.60001 -4.32,-2.39999 -7.20001,-2.39999 -3.35998,0 -7.51996,1.27999 -9.27997,3.35998 v 6.08002 c 2.40003,-3.04001 5.59998,-4 8.32001,-4 2.56,0 3.83997,1.44 3.83997,4.16 V 288 c -1.59998,0.16 -3.83997,0.64001 -5.44,1.12 -4.95997,1.44 -8.47998,4.16 -8.47998,8.64001 0,4.63998 3.84002,7.03998 8.16003,7.03998 2.07995,0 4.79999,-0.79999 6.39996,-2.72 0.47998,1.44 1.91999,2.72 4.16004,2.72 h 0.31994 v 0 h 0.16004 c 1.76001,0 3.35998,-0.63999 4.64001,-1.28 z m -10.24,-1.12 c -0.79998,1.12 -2.08001,1.60001 -3.35998,1.60001 h -0.16004 v 0 c -2.07995,0 -3.51995,-1.12 -3.51995,-2.88001 v 0 c 0,-2.72 2.39996,-4.31998 7.03997,-4.95999 z m -37.91998,6.08002 h 22.71997 V 298.56 h -15.03998 v -32.16001 h -10.72003 v 0.96 c 2.56,0.96002 3.04004,3.52001 3.04004,7.84002 z m 21.12,4.95999 h -14.72004 v 0.95999 c 2.56,0.96002 2.88001,3.52002 2.88001,7.84 v 29.12002 h 7.67999 v -13.44 h 1.12 c 2.56,0 5.11999,0.31998 8.16003,5.59998 l 4.95996,7.84002 h 8.48004 L 575.52002,338.72 c 0,0 -0.32001,-0.32001 -1.28003,-2.23999 -0.79999,-1.28 -2.08002,-3.84 -4.47998,-5.60001 3.67999,-1.6 4.95996,-5.76 4.95996,-9.92001 C 574.56,314.23999 569.91998,309.28 562.08002,309.28 Z m -1.60004,5.76001 c 3.67999,0 6.40002,2.23999 6.40002,6.23999 0,5.6 -2.72003,7.04001 -6.40002,7.04001 h -2.56 v -13.28 z m 29.28003,-1.44 c 0,-2.24002 -1.76001,-4 -4,-4 -2.08002,0 -3.84003,1.75998 -3.84003,4 0,2.07998 1.76001,3.83999 3.84003,3.83999 2.23999,0 4,-1.76001 4,-3.83999 z m -9.76001,8.32 c 2.08002,0.47998 2.56,2.87998 2.56,5.75998 v 19.52002 h 7.03998 V 321.12 H 580 Z M 597.12,324 c -2.56,2.56 -4.15998,6.07999 -4.15998,10.07999 0,4.48001 1.27997,8.32 4,10.72 1.91998,2.08001 4.63996,3.04001 7.83997,3.04001 h 0.48004 c 2.07995,-0.16001 4.79999,-0.96 6.71997,-3.19999 l 0.32001,2.56 h 7.03997 c -0.47998,-1.28 -0.64001,-3.52002 -0.64001,-6.08001 V 309.28 H 609.12 v 0.79999 c 2.08001,0.64001 2.72003,3.04001 2.72003,5.92001 v 6.23999 c -1.44001,-1.44 -3.36005,-1.91998 -5.44001,-1.91998 h -0.16003 v 0 c -3.52002,0 -6.71997,1.28 -9.11999,3.67999 z m 3.03997,10.23999 c 0,-5.11999 2.88001,-8.31998 6.88001,-8.31998 2.40002,0 3.84002,0.79999 4.80005,1.91999 v 11.67999 C 610.88,341.28 608.79999,342.56 606.56,342.56 h -0.15998 v 0 h -0.16003 c -1.44,0 -2.88001,-0.63999 -3.83997,-1.60001 -1.44,-1.44 -2.24005,-3.83999 -2.24005,-6.72 z M 620.32001,354.56 c 0,5.28 5.27997,8.79999 13.44,8.79999 7.83997,0 13.76001,-3.68 13.76001,-9.43998 V 353.44 c 0,-4.16 -3.20001,-7.04001 -8.48004,-7.83999 -0.95996,-0.16001 -3.68,-0.48001 -5.59998,-0.64002 -1.76001,-0.16 -2.56,-0.95999 -2.56,-1.91998 0,-1.28 1.27997,-1.76001 4.15998,-1.92001 6.08002,-0.47999 9.76001,-4 9.76001,-9.12 v 0 -0.32001 c 0,-1.6 -0.79999,-3.83999 -2.23999,-4.95999 0.64001,0.16 1.59997,0.16 2.23999,0.16 h 2.55999 v -5.76 h -13.27996 c -6.72004,0 -11.36005,4.16 -11.36005,10.23999 0,3.52001 1.92004,6.88 5.12006,8.32 -1.92005,0.32001 -3.52002,1.92002 -3.52002,3.84 0,1.44 1.11999,3.20001 3.20001,3.36001 -4.96002,0.96 -7.20001,4.32001 -7.20001,7.68 z m 8.64001,-23.20001 c 0,-3.03998 2.07996,-5.28 4.79999,-5.28 2.71997,0 4.64001,2.24002 4.64001,5.28 0,3.04 -1.92004,5.12002 -4.64001,5.12002 -2.72003,0 -4.79999,-2.08002 -4.79999,-5.12002 z m -2.24005,23.04 c 0,-2.55999 2.88001,-3.83999 7.04004,-3.83999 4.15997,0 7.03998,1.28 7.03998,3.83999 0,2.4 -2.88001,3.68 -7.03998,3.68 -4.16003,0 -7.04004,-1.28 -7.04004,-3.68 z m 21.60004,-20.32 c 0,8 5.27997,13.76001 13.76001,13.76001 3.67999,0 7.20001,-0.96 10.07995,-3.04001 L 671.03998,340 c -2.39997,1.60001 -4.95996,2.39999 -7.51996,2.39999 -0.48004,0 -0.96002,0 -1.44,0 -3.68,-0.47998 -6.23999,-2.88 -6.56,-6.88 h 17.44 c 0.15998,-0.63999 0.15998,-1.28 0.15998,-1.91998 0,-4.32001 -1.12,-7.68 -3.52002,-10.08002 -2.07996,-2.07999 -4.79999,-3.19998 -8.47998,-3.19998 -7.35999,0 -12.79999,5.91998 -12.79999,13.75998 z m 7.35998,-3.19999 c 0.64002,-3.67999 2.72003,-5.44 5.44001,-5.44 3.67999,0 5.11999,2.56 5.28002,5.44 z"
       style="fill:#ffffff;fill-opacity:1;fill-rule:nonzero;stroke:none"
       id="path89" /></g><g
     id="g91"
     transform="matrix(0.26458333,0,0,0.26458334,2.2524614,21.251337)"><path
       d="m 0,0 c -0.96,-0.48 -1.28,-0.48 -2.88,-1.6 -2.24,-2.08 -2.4,-6.24 -2.08,-9.28 0.16,-2.24 1.28,-4.32 0.8,-6.079999 C -4.32,-17.6 -4,-17.6 -3.68,-17.6 c 1.28,-0.16 3.04,2.4 3.84,3.2 2.88,2.88 6.4,6.88 3.84,11.84 0.16,0 0.16,0.16 0.16,0.16 3.04,-2.4 6.88,-4.96 9.44,-9.12 0,0 0.64,-0.8 0.96,-1.28 0,0 0,-0.16 0,-0.16 -1.12,0 -1.76,0.64 -3.52,0 -2.88,-0.8 -5.28,-3.839999 -5.92,-7.04 -0.8,-1.76 -0.8,-4.959999 -2.24,-6.4 -0.16,-0.479999 0,-0.800001 0.32,-0.800001 0.96,-0.319999 4.32,2.08 5.44,2.400002 3.84,1.279999 8.640001,3.199999 8.480001,8.319999 0,-0.159999 0.16,-0.159999 0.16,-0.159999 1.76,-3.040001 4.16,-6.720002 4.479999,-10.880001 -1.76,0 -2.719999,-0.64 -3.84,-0.96 -2.56,-0.800001 -4.48,-1.28 -6.56,-2.560001 -3.2,-2.239998 -4.96,-9.919998 -4.8,-15.52 1.76,0.319999 3.36,1.760002 4.8,2.400001 5.920001,2.720001 10.88,3.360001 11.359999,11.520001 0.640002,-2.400002 0,-7.200001 -0.319999,-8.48 -0.8,-3.200001 -0.8,-5.760002 -1.92,-8.32 C 19.52,-51.68 17.120001,-52.48 16,-54.400002 c -1.6,-2.399997 -1.12,-7.039997 -0.96,-11.04 0,-1.439995 -0.64,-4.799996 0.16,-5.919999 0.16,-0.159996 0.32,-0.159996 0.64,-0.159996 1.280001,0.32 1.600001,1.599999 2.56,2.559998 2.559999,2.239998 5.6,4.799995 6.559999,8.479999 0.480002,2.239998 -0.32,5.759999 -0.959999,7.360001 -0.16,0.799999 -1.120001,1.919998 -0.799999,3.360001 0.319999,1.759998 1.599998,5.599998 1.599998,7.84 0.640002,-0.480004 0.16,-3.200001 0.320002,-4.800003 0.32,-2.079998 0.959999,-2.879997 1.759998,-4.32 0.800001,-1.439999 2.400002,-3.68 4,-4.479999 0.960001,-0.48 2.24,-0.48 3.039999,-1.119999 1.120003,-0.64 1.280003,-0.16 1.440003,0.159999 0.319999,7.040001 -2.560002,11.840001 -5.92,16.16 -1.120001,1.599999 -2.880002,3.040001 -3.680001,4.8 -0.639999,1.279998 -0.319999,1.439998 -0.800001,4.159999 C 24.48,-28.32 24.16,-26.08 22.879999,-22.719999 c -0.16,0.319999 -0.16,0.479999 -0.16,0.639999 2.24,-1.6 3.200001,-5.280001 4.960001,-7.360001 2.24,-2.879999 8.8,-7.199998 12.64,-7.359998 0.799999,2.079998 -0.16,4.639999 -0.8,6.399999 -2.240001,6.56 -3.68,8.8 -9.76,10.4 -3.200001,0.799999 -5.92,0.48 -8,1.76 -1.120001,0.799999 -1.76,2.08 -2.559999,3.52 0,0 0,0.16 -0.16,0.16 -0.320002,0.8 -0.800001,1.28 -1.280001,1.92 -0.16,0.32 -0.639999,0.8 -0.960001,1.28 C 15.36,-9.44 14.24,-7.68 12.32,-6.08 12.16,-5.92 12,-5.76 11.84,-5.6 c 2.72,-0.64 5.440001,-3.84 8,-5.28 3.520001,-1.92 10.719999,-2.24 15.040001,-1.92 -0.32,2.24 -2.400001,4.64 -3.84,5.92 -4.160002,4 -8,6.24 -13.6,6.08 C 14.88,-0.8 11.52,-2.72 9.12,-2.08 6.88,-1.76 4.8,-0.32 2.56,1.6 c -1.92,1.76 -5.6,4.96 -6.72,10.56 -1.28,6.399999 -0.48,8.960001 -1.92,9.92 -0.64,-0.48 -2.72,-2.719999 -2.4,-6.4 0.8,-5.44 5.6,-13.6 8,-15.36 z"
       style="fill:#75bd43;fill-opacity:1;fill-rule:nonzero;stroke:none"
       id="path93" /></g><g
     id="g95"
     transform="matrix(0.26458333,0,0,0.26458334,3.7341314,23.029337)"><path
       d="m 0,0 c -0.96,0.48 -1.6,1.12 -2.08,1.92 -0.48,0.96 -0.8,1.76 -0.8,2.88 0,0.96 0.32,1.92 0.8,2.72 0.48,0.8 1.12,1.44 1.92,1.92 0.96,0.32 1.92,0.64 3.04,0.64 0.64,0 1.44,-0.16 1.92,-0.32 C 5.44,9.6 5.92,9.44 6.72,9.12 V 7.2 C 5.92,7.52 5.28,7.84 4.64,8 4.16,8.16 3.68,8.32 3.04,8.32 2.4,8.32 1.6,8.16 1.12,7.84 0.48,7.52 0,7.04 -0.32,6.56 -0.64,6.08 -0.8,5.44 -0.8,4.64 -0.8,4 -0.64,3.36 -0.32,2.88 0,2.24 0.48,1.92 1.12,1.6 1.6,1.28 2.4,1.12 3.04,1.12 c 0.64,0 1.12,0 1.76,0.16 0.48,0.16 1.12,0.48 1.76,0.8 V 0.32 C 5.92,0 5.28,-0.32 4.8,-0.48 4.16,-0.48 3.52,-0.64 3.04,-0.64 1.92,-0.64 0.8,-0.48 0,0 Z m 12.96,0 c -0.96,0.48 -1.6,1.12 -2.08,2.08 -0.48,0.8 -0.8,1.6 -0.8,2.56 0,1.12 0.32,1.92 0.8,2.72 0.48,0.8 1.12,1.44 2.08,1.92 0.8,0.48 1.76,0.8 2.88,0.8 1.119999,0 2.08,-0.32 2.879999,-0.8 C 19.68,8.8 20.32,8.16 20.799999,7.36 21.280001,6.56 21.6,5.6 21.6,4.64 21.6,3.68 21.280001,2.72 20.799999,1.92 20.32,1.12 19.68,0.48 18.719999,0 17.92,-0.48 16.959999,-0.64 15.84,-0.64 c -1.12,0 -2.08,0.32 -2.88,0.64 z m -0.32,2.88 c 0.32,-0.64 0.8,-0.96 1.28,-1.28 0.64,-0.32 1.28,-0.48 1.92,-0.48 0.64,0 1.280001,0.16 1.92,0.48 0.48,0.32 0.959999,0.64 1.280001,1.28 C 19.360001,3.36 19.52,4 19.52,4.64 19.52,5.76 19.200001,6.56 18.559999,7.36 17.76,8 16.959999,8.32 15.84,8.32 15.2,8.32 14.56,8.16 13.92,7.84 13.44,7.52 12.96,7.04 12.64,6.56 12.32,6.08 12.16,5.44 12.16,4.64 12.16,4 12.32,3.36 12.64,2.88 Z M 25.6,-0.48 v 10.4 h 1.92 V 2.56 h 0.16 l 3.039999,3.68 h 0.16 l 3.039999,-3.68 v 0 7.36 H 36 v -10.4 h -1.759998 l -3.360003,4 -3.519998,-4 z m 14.88,0 v 10.4 h 1.920002 V 2.56 h 0.159999 l 2.879998,3.68 h 0.319999 l 3.040001,-3.68 v 0 7.36 h 2.080002 v -10.4 h -1.920002 l -3.360001,4 -3.359996,-4 z m 14.720001,0 v 6.24 c 0,0.8 0.16,1.6 0.479999,2.24 0.48,0.64 0.959999,1.12 1.599999,1.44 0.800003,0.48 1.600002,0.64 2.560001,0.64 1.439999,0 2.720001,-0.48 3.520001,-1.12 0.800003,-0.8 1.279998,-1.92 1.279998,-3.36 v -6.08 h -2.079998 v 5.92 c 0,0.64 0,1.12 -0.159999,1.6 -0.32,0.32 -0.640004,0.64 -0.960003,0.96 C 60.959999,8.16 60.48,8.32 59.84,8.32 59.200001,8.32 58.720001,8.16 58.400002,8 57.919998,7.68 57.599998,7.36 57.439999,7.04 c -0.16,-0.32 -0.32,-0.8 -0.32,-1.44 v -6.08 z m 13.759998,0 v 10.4 h 1.919998 V 2.56 l 6.240006,7.36 h 1.759994 v -10.4 h -1.919998 v 7.2 l -6.239998,-7.2 z m 14.400002,10.4 h 1.919998 v -10.4 h -1.919998 z m 5.599998,-10.4 v 1.6 h 3.68 v 8.8 h 2.080002 v -8.8 h 3.680001 v -1.6 z m 12.000001,0 4,5.28 v 5.12 h 1.92 V 4.8 l 4,-5.28 h -2.4 l -2.56,3.52 -2.56,-3.52 z"
       style="fill:#00a7cf;fill-opacity:1;fill-rule:nonzero;stroke:none"
       id="path97" /></g><g
     id="g99"
     transform="matrix(0.26458333,0,0,0.26458334,3.9458014,26.797001)"><path
       d="m 0,0 c -0.96,0.48 -1.6,1.12 -2.08,1.92 -0.64,0.96 -0.8,1.92 -0.8,2.88 0,0.96 0.16,1.92 0.64,2.72 0.48,0.8 1.28,1.44 2.08,1.92 0.8,0.32 1.92,0.64 2.88,0.64 0.8,0 1.44,-0.16 2.08,-0.32 C 5.28,9.6 5.92,9.44 6.56,9.12 V 7.2 C 5.76,7.68 5.12,7.84 4.64,8 4.16,8.16 3.68,8.32 3.04,8.32 2.24,8.32 1.6,8.16 0.96,7.84 0.48,7.52 0,7.2 -0.32,6.56 -0.64,6.08 -0.8,5.44 -0.8,4.8 -0.8,4 -0.64,3.36 -0.32,2.88 0,2.4 0.48,1.92 0.96,1.6 1.6,1.28 2.24,1.12 3.04,1.12 3.68,1.12 4.16,1.28 4.8,1.44 5.28,1.6 5.92,1.76 6.56,2.24 V 0.32 C 5.92,0 5.28,-0.32 4.64,-0.32 4.16,-0.48 3.52,-0.64 2.88,-0.64 1.76,-0.64 0.8,-0.32 0,0 Z m 12.8,0.16 c -0.8,0.32 -1.44,1.12 -1.92,1.92 -0.48,0.8 -0.8,1.76 -0.8,2.72 0,0.96 0.32,1.76 0.8,2.56 0.48,0.8 1.12,1.44 2.08,1.92 0.8,0.48 1.76,0.8 2.88,0.8 1.119999,0 2.08,-0.32 2.879999,-0.8 C 19.68,8.96 20.32,8.32 20.799999,7.36 21.280001,6.56 21.6,5.76 21.6,4.8 21.6,3.68 21.280001,2.88 20.799999,1.92 20.32,1.12 19.52,0.48 18.719999,0 17.92,-0.32 16.959999,-0.64 15.84,-0.64 c -1.12,0 -2.08,0.32 -3.04,0.8 z m -0.16,2.72 c 0.32,-0.64 0.64,-0.96 1.28,-1.28 0.48,-0.32 1.12,-0.48 1.92,-0.48 0.64,0 1.280001,0.16 1.92,0.48 0.48,0.32 0.959999,0.64 1.280001,1.28 C 19.360001,3.36 19.52,4 19.52,4.8 19.52,5.76 19.200001,6.56 18.4,7.36 17.76,8 16.959999,8.32 15.84,8.32 15.2,8.32 14.56,8.16 13.92,7.84 13.44,7.52 12.96,7.2 12.64,6.56 12.32,6.08 12.16,5.44 12.16,4.8 12.16,4 12.32,3.36 12.64,2.88 Z M 25.6,-0.48 v 10.4 h 7.039999 V 8.32 H 27.52 v -8.8 z m 20.960001,0 v 10.4 h 6.879998 v -1.6 h -4.8 V 5.44 h 4.48 v -1.6 h -4.48 V 1.12 h 4.64 v -1.6 z M 59.84,0.16 c -0.799999,0.32 -1.599998,0.96 -2.080002,1.76 -0.479999,0.96 -0.799999,1.76 -0.799999,2.88 0,0.96 0.32,1.92 0.799999,2.72 0.480004,0.8 1.120003,1.44 2.080002,1.92 0.959999,0.32 1.919998,0.64 3.040001,0.64 C 63.52,10.08 64.32,9.92 65.120003,9.76 65.760002,9.6 66.400002,9.28 66.879997,8.96 V 4.64 h -3.679996 v 1.6 h 1.759998 v 1.6 C 64.480003,8 64.160004,8.16 63.84,8.16 63.52,8.32 63.200001,8.32 62.880001,8.32 61.759998,8.32 60.799999,8 60.16,7.36 59.52,6.72 59.040001,5.92 59.040001,4.8 c 0,-0.64 0.16,-1.28 0.479999,-1.92 0.32,-0.64 0.8,-0.96 1.439999,-1.28 0.639999,-0.32 1.280003,-0.48 2.080002,-0.48 1.120003,0 2.400001,0.32 3.68,0.96 V 0.32 c -1.279999,-0.64 -2.559997,-0.96 -3.84,-0.96 -1.120003,0 -2.080002,0.32 -3.040001,0.8 z m 11.359997,-0.64 v 10.4 h 6.720001 V 8.32 H 73.120003 V 5.44 h 4.479995 V 3.84 H 73.120003 V 1.12 h 4.799995 v -1.6 z"
       style="fill:#00a7cf;fill-opacity:1;fill-rule:nonzero;stroke:none"
       id="path101" /></g><g
     id="g103"
     transform="matrix(0.26458333,0,0,0.26458334,-129.95453,-70.484999)"><path
       d="m 542.23999,367.20001 v 10.4 h 7.04004 V 376 h -5.12006 v -8.79999 z"
       style="fill:#00a7cf;fill-opacity:1;fill-rule:nonzero;stroke:none"
       id="path105" /></g></svg>
